# xmcd
#
# Track frame offsets: 
#        150
#        17377
#        32069
#        45175
#        58870
#        71589
#        85037
#        98265
#
# Disc length: 1501 seconds
#
# Revision: 1
# Processed by: cddbd v1.5.2PL0 Copyright (c) Steve Scherf et al.
# Submitted via: ExactAudioCopy v1.1
#
DISCID=4f05db08
DTITLE=The Yardbirds - Yardbids'68 - Studio Sketches
DYEAR=2017
DGENRE=Rock
TTITLE0=Avron Knows (stereo)
TTITLE1=Spanish Blood (stereo)
TTITLE2=Knowing That I'm Losing You (Tangerine) (stereo)
TTITLE3=Taking A Hold On Me (stereo)
TTITLE4=Drinking Muddy Water (version 2) (stereo)
TTITLE5=My Baby (stereo)
TTITLE6=Avron's Eyes (stereo)
TTITLE7=Spanish Blood (inst) (stereo)
EXTD=
EXTT0=
EXTT1=
EXTT2=
EXTT3=
EXTT4=
EXTT5=
EXTT6=
EXTT7=
PLAYORDER=
